<svg id="Layer_1" enable-background="new 0 0 512.221 512.221" height="512" viewBox="0 0 512.221 512.221" width="512" xmlns="http://www.w3.org/2000/svg" xmlns:xlink="http://www.w3.org/1999/xlink"><linearGradient id="SVGID_1_" gradientUnits="userSpaceOnUse" x1=".103" x2="512.119" y1="256.111" y2="256.111"><stop offset="0" stop-color="#87f1fc"/><stop offset=".2557" stop-color="#7fd4fb"/><stop offset=".5295" stop-color="#78bcfb"/><stop offset=".7844" stop-color="#74aefa"/><stop offset="1" stop-color="#73a9fa"/></linearGradient><path d="m293.659 232.36c10.823 5.597 23.725 4.7 33.67-2.345.185-.131.367-.265.547-.401l10.964-8.34c76.689 44.053 174.346-15.993 173.27-103.267-6.476-156.534-229.539-156.503-235.999.001v85.521c0 12.187 6.724 23.234 17.548 28.831zm22.452-114.351c4.284-103.476 151.731-103.449 156 .001-.139 64.221-73.408 100.152-122.879 62.654-7.123-5.023-16.685-4.855-23.632.427l-9.489 7.218zm-155.001 276c0 11.046-8.954 20-20 20h-46c-26.536-1.056-26.516-38.953 0-40h46c11.046 0 20 8.954 20 20zm190.001-276c0-11.046 8.954-20 20-20h46c26.536 1.056 26.516 38.953 0 40h-46c-11.046 0-20-8.954-20-20zm-233.001-118c-156.581 6.5-156.461 229.558 0 236h85.521c26.083.226 41.743-30.073 26.486-51.219-.131-.185-.265-.367-.401-.547l-8.34-10.964c44.062-76.691-16.003-174.346-103.266-173.27zm63.082 186.511 7.218 9.489h-70.3c-103.476-4.284-103.449-151.731.001-156 64.221.139 100.152 73.408 62.654 122.879-5.026 7.128-4.853 16.69.427 23.632zm330.918 207.489c0 13.191-2.166 26.154-6.439 38.528-3.605 10.44-14.992 15.984-25.433 12.376-10.44-3.605-15.981-14.991-12.376-25.433 17.822-49.575-20.999-104.17-73.752-103.472h-70.299l7.218 9.489c5.279 6.941 5.452 16.504.427 23.632-44.651 60.273 15.383 142.832 88.126 118.631 10.443-3.61 21.828 1.936 25.433 12.376 3.605 10.441-1.936 21.828-12.376 25.433-100.239 34.676-193.872-72.965-141.794-166.831l-8.34-10.964c-.137-.18-.271-.362-.401-.547-15.262-21.154.413-51.446 26.486-51.219h85.521c65.065.001 117.999 52.935 117.999 118.001zm-351-276c0 11.046-8.954 20-20 20h-46c-26.536-1.056-26.516-38.953 0-40h46c11.046 0 20 8.954 20 20zm57.452 161.648c-10.823-5.596-23.726-4.7-33.67 2.345-.185.131-.367.265-.547.401l-10.964 8.34c-76.689-44.053-174.346 15.993-173.27 103.267 6.476 156.534 229.539 156.503 235.999-.001v-85.521c0-12.186-6.724-23.233-17.548-28.831zm-22.452 114.352c-4.284 103.476-151.731 103.449-156-.001.139-64.221 73.408-100.152 122.879-62.654 7.13 5.027 16.691 4.853 23.632-.427l9.489-7.218zm221.001-20c26.536 1.056 26.516 38.953 0 40h-46c-26.536-1.056-26.516-38.953 0-40z" fill="url(#SVGID_1_)"/></svg>