<svg id="Layer_1" viewBox="0 0 512 512" xmlns="http://www.w3.org/2000/svg" data-name="Layer 1"><path d="m89.945 204.5v22.45a15.665 15.665 0 0 1 -15.645 15.642h-15.65v-53.717h15.65a15.652 15.652 0 0 1 15.645 15.625zm342.255 180.93h-262.12a7.005 7.005 0 0 0 0 14.01h262.12a7.005 7.005 0 1 0 0-14.01zm0 52.5h-262.12a7 7 0 1 0 0 14h262.12a7 7 0 1 0 0-14zm-269.12-98a7 7 0 0 0 7 7.01h262.12a7.005 7.005 0 1 0 0-14.01h-262.12a7 7 0 0 0 -7 7zm-13.465-97.338a6.938 6.938 0 0 0 6.944-6.916v-39.885a6.938 6.938 0 0 0 -6.944-6.916h-17.406a7.023 7.023 0 0 0 -6.944 6.916v39.885a7.023 7.023 0 0 0 6.944 6.916zm341.915-92.272v318.73a43.006 43.006 0 0 1 -42.97 42.95h-294.84a43.013 43.013 0 0 1 -42.97-42.95v-180.9h-75.34a14.961 14.961 0 0 1 -14.94-14.94v-114.95a14.954 14.954 0 0 1 14.94-14.94h75.34v-100.35a43.023 43.023 0 0 1 42.97-42.97h187.49a7 7 0 0 1 4.95 2.05l143.32 143.32a6.994 6.994 0 0 1 2.05 4.95zm-387.582 54.18a29.671 29.671 0 0 0 -29.648-29.629h-22.652a7 7 0 0 0 -7 7v67.721a7 7 0 0 0 7 7h22.652a29.685 29.685 0 0 0 29.651-29.651zm28.261 52.1h17.406a20.958 20.958 0 0 0 20.947-20.92v-39.889a20.958 20.958 0 0 0 -20.947-20.92h-17.406a20.958 20.958 0 0 0 -20.948 20.92v39.885a20.958 20.958 0 0 0 20.948 20.924zm345.321-99.27h-116.33a27.017 27.017 0 0 1 -26.99-26.99v-116.34h-180.49a29.008 29.008 0 0 0 -28.97 28.97v100.35h188.45a14.954 14.954 0 0 1 14.94 14.94v114.95a14.961 14.961 0 0 1 -14.94 14.94h-188.45v180.9a29 29 0 0 0 28.97 28.95h294.84a29 29 0 0 0 28.97-28.95zm-252.655 38.461v5.755a7 7 0 1 0 14 0v-5.755a20.943 20.943 0 0 0 -20.92-20.92h-17.43a20.943 20.943 0 0 0 -20.919 20.92v39.885a20.943 20.943 0 0 0 20.919 20.92h17.433a20.943 20.943 0 0 0 20.92-20.92v-5.754a7 7 0 1 0 -14 0v5.754a6.925 6.925 0 0 1 -6.917 6.916h-17.436a6.924 6.924 0 0 1 -6.916-6.916v-39.885a6.924 6.924 0 0 1 6.916-6.916h17.433a6.925 6.925 0 0 1 6.917 6.916zm41.013 19.943-20.045 29.966a7 7 0 0 0 11.64 7.785l16.829-25.159 16.829 25.159a7 7 0 0 0 11.64-7.785l-20.045-29.967 20.045-29.968a7 7 0 0 0 -11.64-7.785l-16.829 25.16-16.829-25.159a7 7 0 0 0 -11.64 7.785z" fill="#09d"/></svg>