<svg id="Capa_1" enable-background="new 0 0 512 512" height="512" viewBox="0 0 512 512" width="512" xmlns="http://www.w3.org/2000/svg"><g><g><path d="m316 0h-210c-24.813 0-45 20.187-45 45v422c0 24.813 20.187 45 45 45h300c24.813 0 45-20.187 45-45v-332z" fill="#f1f1f4"/><path d="m256 0v512h150c24.813 0 45-20.187 45-45v-332l-135-135z" fill="#e2dff4"/><path d="m326.606 4.394c-2.813-2.813-6.628-4.394-10.606-4.394v100c0 19.33 15.67 35 35 35h100c0-3.978-1.581-7.793-4.394-10.606z" fill="#bebcdd"/><g fill="#7a7a93"><path d="m241 150h-120c-8.284 0-15-6.716-15-15s6.716-15 15-15h120c8.284 0 15 6.716 15 15s-6.716 15-15 15z"/><path d="m241 90h-120c-8.284 0-15-6.716-15-15s6.716-15 15-15h120c8.284 0 15 6.716 15 15s-6.716 15-15 15z"/></g></g><path d="m436 430h-360c-24.813 0-45-20.187-45-45v-140c0-24.813 20.187-45 45-45h360c24.813 0 45 20.187 45 45v140c0 24.813-20.187 45-45 45z" fill="#ff8659"/><path d="m436 200h-180v230h180c24.813 0 45-20.187 45-45v-140c0-24.813-20.187-45-45-45z" fill="#ff5c5c"/><path d="m325.178 343.225c-4.23-3.55-10.538-2.999-14.088 1.232-.953 1.136-1.979 2.195-3.049 3.147-5.51 4.907-12.505 7.396-20.791 7.396-22.056 0-40-17.944-40-40s17.944-40 40-40c8.018 0 15.749 2.36 22.357 6.825 4.576 3.094 10.793 1.889 13.884-2.687 3.092-4.576 1.889-10.792-2.687-13.884-9.927-6.709-21.53-10.254-33.554-10.254-33.084 0-60 26.916-60 60s26.916 60 60 60c13.15 0 24.939-4.309 34.092-12.459 1.79-1.594 3.495-3.352 5.068-5.227 3.55-4.231 2.998-10.539-1.232-14.089z" fill="#f1f1f4"/><g fill="#e2dff4"><path d="m287.25 275c8.018 0 15.749 2.36 22.357 6.825 4.576 3.094 10.793 1.889 13.884-2.687 3.092-4.576 1.889-10.792-2.687-13.884-9.927-6.709-21.53-10.254-33.554-10.254-11.441 0-22.142 3.222-31.25 8.802v26.272c7.336-9.178 18.614-15.074 31.25-15.074z"/><path d="m325.178 343.225c-4.23-3.55-10.538-2.999-14.088 1.232-.953 1.136-1.979 2.195-3.049 3.147-5.51 4.907-12.505 7.396-20.791 7.396-12.636 0-23.914-5.896-31.25-15.075v26.272c9.108 5.58 19.809 8.802 31.25 8.802 13.15 0 24.939-4.309 34.092-12.459 1.79-1.594 3.495-3.352 5.068-5.227 3.55-4.23 2.998-10.538-1.232-14.088z"/></g><path d="m389.326 326.375c17.426-3.078 30.674-17.768 30.674-35.386 0-19.844-16.804-35.989-37.459-35.989h-26.574c-.005 0-.011.001-.016.001s-.011-.001-.016-.001c-5.523 0-10 4.477-10 10v100c0 5.523 4.477 10 10 10s10-4.477 10-10v-34.93l36.559 41.537c1.977 2.246 4.737 3.393 7.511 3.393 2.346 0 4.703-.821 6.603-2.493 4.146-3.649 4.548-9.968.9-14.114zm-6.785-51.375c9.464 0 17.459 7.322 17.459 15.989s-7.996 15.988-17.459 15.988c-3.78 0-10.653.03-16.446.06-.031-5.692-.062-12.396-.062-16.048 0-3.104-.018-10.053-.035-15.989z" fill="#e2dff4"/><path d="m152 255c-33.084 0-60 26.916-60 60s26.916 60 60 60 60-26.916 60-60-26.916-60-60-60zm0 100c-22.056 0-40-17.944-40-40s17.944-40 40-40 40 17.944 40 40-17.944 40-40 40z" fill="#f1f1f4"/></g></svg>