<?xml version="1.0" encoding="UTF-8"?>
<svg xmlns="http://www.w3.org/2000/svg" xmlns:xlink="http://www.w3.org/1999/xlink" version="1.1" id="Capa_1" x="0px" y="0px" viewBox="0 0 512 512" style="enable-background:new 0 0 512 512;" xml:space="preserve" width="512" height="512">
<g>
	
		<linearGradient id="Download_pdf_00000172404555330700544040000010683341674347739068_" gradientUnits="userSpaceOnUse" x1="1.455192e-11" y1="256" x2="512" y2="256">
		<stop offset="0" style="stop-color:#9DD6FC"/>
		<stop offset="0.0056" style="stop-color:#9DD6FC"/>
		<stop offset="1" style="stop-color:#D17FF7"/>
	</linearGradient>
	
		<path id="Download_pdf" style="fill:none;stroke:url(#Download_pdf_00000172404555330700544040000010683341674347739068_);stroke-width:40;stroke-linecap:round;stroke-linejoin:round;stroke-miterlimit:10;" d="&#10;&#9;&#9;M332,492h-30V372h30c22.091,0,40,17.909,40,40v40C372,474.091,354.091,492,332,492z M432,372v120 M432,372h60 M472,432h-40&#10;&#9;&#9; M172,492V372 M212,372h-40v60h40c16.569,0,30-13.431,30-30v0C242,385.431,228.569,372,212,372z M200,180v120 M160,260l40,40l40-40&#10;&#9;&#9; M380,300V139.999 M260,20H60c-22.091,0-40,17.909-40,40v392c0,22.091,17.909,40,40,40h40 M260,20v80c0,22.091,17.909,40,40,40h80&#10;&#9;&#9;L260,20z"/>
</g>















</svg>
